<svg class="brand-logo-svg" height="64" width="64" fill="#fff" xmlns="http://www.w3.org/2000/svg" xmlns:xlink="http://www.w3.org/1999/xlink" version="1.1" x="0px" y="0px" viewBox="0 0 100 100" enable-background="new 0 0 100 100" xml:space="preserve"><g><g><path d="M32.9,95H13.9c-0.8,0-1.4-0.6-1.4-1.4V74.6c0-0.8,0.6-1.4,1.4-1.4h18.9c0.8,0,1.4,0.6,1.4,1.4v18.9    C34.3,94.3,33.7,95,32.9,95z"></path><path d="M59.5,95H40.5c-0.8,0-1.4-0.6-1.4-1.4V74.6c0-0.8,0.6-1.4,1.4-1.4h18.9c0.8,0,1.4,0.6,1.4,1.4v18.9    C60.9,94.3,60.2,95,59.5,95z"></path><path d="M86.1,95H67.1c-0.8,0-1.4-0.6-1.4-1.4V74.6c0-0.8,0.6-1.4,1.4-1.4h18.9c0.8,0,1.4,0.6,1.4,1.4v18.9    C87.5,94.3,86.8,95,86.1,95z"></path><path d="M32.9,68.4H13.9c-0.8,0-1.4-0.6-1.4-1.4V48c0-0.8,0.6-1.4,1.4-1.4h18.9c0.8,0,1.4,0.6,1.4,1.4v18.9    C34.3,67.7,33.7,68.4,32.9,68.4z"></path><path d="M59.5,64.3H40.5c-0.8,0-1.4-0.6-1.4-1.4V43.9c0-0.8,0.6-1.4,1.4-1.4h18.9c0.8,0,1.4,0.6,1.4,1.4v18.9    C60.9,63.6,60.2,64.3,59.5,64.3z"></path><path d="M86.1,58.1H67.1c-0.8,0-1.4-0.6-1.4-1.4V37.7c0-0.8,0.6-1.4,1.4-1.4h18.9c0.8,0,1.4,0.6,1.4,1.4v18.9    C87.5,57.5,86.8,58.1,86.1,58.1z"></path><path d="M32.9,41.8H13.9c-0.8,0-1.4-0.6-1.4-1.4V21.4c0-0.8,0.6-1.4,1.4-1.4h18.9c0.8,0,1.4,0.6,1.4,1.4v18.9    C34.3,41.1,33.7,41.8,32.9,41.8z"></path><path d="M59.5,33H40.5c-0.8,0-1.4-0.6-1.4-1.4V12.6c0-0.8,0.6-1.4,1.4-1.4h18.9c0.8,0,1.4,0.6,1.4,1.4v18.9    C60.9,32.4,60.2,33,59.5,33z"></path><path d="M86.1,26.8H67.1c-0.8,0-1.4-0.6-1.4-1.4V6.5c0-0.8,0.6-1.4,1.4-1.4h18.9c0.8,0,1.4,0.6,1.4,1.4v18.9    C87.5,26.2,86.8,26.8,86.1,26.8z"></path></g></g></svg>